<svg width="29" height="29" viewBox="0 0 29 29" fill="none" xmlns="http://www.w3.org/2000/svg">
<path d="M9.44917 8.58545C9.69943 8.58545 9.9023 8.38258 9.9023 8.13232C9.9023 7.88207 9.69943 7.6792 9.44917 7.6792C9.19892 7.6792 8.99605 7.88207 8.99605 8.13232C8.99605 8.38258 9.19892 8.58545 9.44917 8.58545Z" fill="white"/>
<path d="M9.44917 10.2285V19.2789" stroke="white" stroke-width="0.5" stroke-linecap="round" stroke-linejoin="round"/>
<path d="M20.004 19.2788V13.4728C20.0024 12.5407 19.6314 11.6473 18.9723 10.9882C18.3132 10.3291 17.4198 9.95814 16.4877 9.95654C15.5546 9.95654 14.6596 10.3268 13.9992 10.9861C13.3388 11.6453 12.967 12.5397 12.9654 13.4728V19.2788" stroke="white" stroke-width="0.5" stroke-linecap="round" stroke-linejoin="round"/>
<path d="M12.9654 13.4729V10.2285" stroke="white" stroke-width="0.5" stroke-linecap="round" stroke-linejoin="round"/>
<path d="M24.4688 3.32275H4.53126C4.21079 3.32275 3.90344 3.45006 3.67683 3.67667C3.45023 3.90327 3.32292 4.21062 3.32292 4.53109V24.4686C3.32292 24.7891 3.45023 25.0964 3.67683 25.323C3.90344 25.5496 4.21079 25.6769 4.53126 25.6769H24.4688C24.7892 25.6769 25.0966 25.5496 25.3232 25.323C25.5498 25.0964 25.6771 24.7891 25.6771 24.4686V4.53109C25.6771 4.21062 25.5498 3.90327 25.3232 3.67667C25.0966 3.45006 24.7892 3.32275 24.4688 3.32275Z" stroke="white" stroke-width="0.5" stroke-linecap="round" stroke-linejoin="round"/>
</svg>
